<?xml version="1.0" standalone="no"?>
<!DOCTYPE svg PUBLIC "-//W3C//DTD SVG 20010904//EN" "http://www.w3.org/TR/2001/REC-SVG-20010904/DTD/svg10.dtd">
<!-- Created using Krita: http://krita.org -->
<svg xmlns="http://www.w3.org/2000/svg" 
    xmlns:xlink="http://www.w3.org/1999/xlink"
    xmlns:krita="http://krita.org/namespaces/svg/krita"
    xmlns:sodipodi="http://sodipodi.sourceforge.net/DTD/sodipodi-0.dtd"
    width="175.781pt"
    height="175.781pt"
    viewBox="0 0 175.781 175.781">
<defs/>
<path id="shape0" transform="matrix(0.0703125 0 0 0.0703125 66.1511953125 63.8791171875)" fill="#4d4d4d" d="M0 0L218.863 0L218.863 21.167L0 21.167Z"/><path id="shape1" transform="matrix(0.0703125 0 0 0.0703125 63.1151015624999 63.8791171875)" fill="#4d4d4d" d="M21.166 0L0 0L0 21.167L21.166 21.167Z"/><path id="shape2" transform="matrix(0.0703125 0 0 0.0703125 66.1511953125 80.60765625)" fill="#4d4d4d" d="M0 0L218.863 0L218.863 21.16L0 21.16Z"/><path id="shape3" transform="matrix(0.0703125 0 0 0.0703125 63.1151015624999 80.60765625)" fill="#4d4d4d" d="M21.166 0L0 0L0 21.16L21.166 21.16Z"/><path id="shape4" transform="matrix(0.0703125 0 0 0.0703125 66.1511953125 97.335703125)" fill="#4d4d4d" d="M0 0L218.863 0L218.863 21.17L0 21.17Z"/><path id="shape5" transform="matrix(0.0703125 0 0 0.0703125 63.1151015624999 97.335703125)" fill="#4d4d4d" d="M21.166 0L0 0L0 21.17L21.166 21.17Z"/><path id="shape6" transform="matrix(0.0703125 0 0 0.0703125 66.1511953125 72.24328125)" fill="#4d4d4d" d="M328.083 0L0 0L0 21.17L328.083 21.17Z"/><path id="shape7" transform="matrix(0.0703125 0 0 0.0703125 56.1796875 54.5625)" fill="#4d4d4d" fill-rule="evenodd" d="M635 142.875L476.25 0L0 0L0 762L79.375 762L158.75 762L317.5 762L368.3 762L379.73 740.83L317.5 740.83L169.333 740.83L95.25 740.83L76.729 740.83L58.208 740.83L21.167 740.83L21.167 21.167L465.67 21.167L465.67 153.458L613.83 153.458L613.83 359.41L635 406.4ZM591.6 132.292L486.83 38.002L486.83 132.292Z"/><path id="shape8" transform="matrix(0.0703125 0 0 0.0703125 66.1511953125 88.9713281249999)" fill="#4d4d4d" fill-rule="evenodd" d="M317.683 0L0 0L0 21.17L306.183 21.17Z"/><path id="shape9" transform="matrix(0.0703125 0 0 0.0703125 74.4609375 76.5)" fill="none" stroke="#ffab40" stroke-width="25" stroke-linecap="butt" stroke-linejoin="miter" stroke-miterlimit="2" d="M251.34 527.21C193.72 536.41 100.03 578.57 0 635C102.67 452.18 316.86 0 316.86 0C316.86 0 535.98 451.77 641 634.68C538.67 578.22 442.82 536.04 383.89 526.84C392.2 480.21 391.83 368.88 316.86 368.88C246.59 368.88 243.21 480.61 251.34 527.21Z"/>
</svg>
